<svg id="Icons" height="512" viewBox="0 0 64 64" width="512" xmlns="http://www.w3.org/2000/svg"><path d="m19.703 38.293h40.22v2h-40.22z" fill="#c4a2fc" transform="matrix(.707 -.707 .707 .707 -16.123 39.66)"/><path d="m60.948 18.158a6.994 6.994 0 0 0 -9.9 0l-29.7 29.7a1 1 0 0 0 -.223.348l-.008.013-4.95 13.435a1 1 0 0 0 1.284 1.285l13.435-4.95.013-.008a.98.98 0 0 0 .348-.224l29.7-29.7a7 7 0 0 0 .001-9.899zm-1.414 8.485-1.966 1.966-1.414-1.409-28.44 28.434 1.016 1.016-9.93 3.661 3.66-9.936 1.017 1.016 28.434-28.439-1.411-1.414 1.966-1.966a5 5 0 0 1 7.071 7.071z" fill="#c4a2fc"/><g fill="#151a6a"><path d="m1 4v42a5.006 5.006 0 0 0 5 5h41a5.006 5.006 0 0 0 5-5v-2a3 3 0 0 0 -3-3h-6v-37a3 3 0 0 0 -3-3h-36a3 3 0 0 0 -3 3zm40 0v5h-38v-5a1 1 0 0 1 1-1h36a1 1 0 0 1 1 1zm-31 45a4.973 4.973 0 0 0 1-3v-2a1 1 0 0 1 1-1h37a1 1 0 0 1 1 1v2a3 3 0 0 1 -3 3zm-7-3v-35h38v30h-29a3 3 0 0 0 -3 3v2a3 3 0 0 1 -6 0z"/><circle cx="7" cy="6" r="1"/><circle cx="12" cy="6" r="1"/><circle cx="17" cy="6" r="1"/><path d="m38 24v-9a1 1 0 0 0 -1-1h-15a1 1 0 0 0 -1 1v9a1 1 0 0 0 1 1h15a1 1 0 0 0 1-1zm-2-1h-13v-7h13z"/><path d="m6 14h12a1 1 0 0 1 0 2h-12a1 1 0 0 1 0-2z"/><path d="m6 19h12a1 1 0 0 1 0 2h-12a1 1 0 0 1 0-2z"/><path d="m6 24h12a1 1 0 0 1 0 2h-12a1 1 0 0 1 0-2z"/><path d="m6 28h31a1 1 0 0 1 0 2h-31a1 1 0 0 1 0-2z"/><path d="m6 33h31a1 1 0 0 1 0 2h-31a1 1 0 0 1 0-2z"/></g></svg>