<?xml version="1.0"?>
<svg xmlns="http://www.w3.org/2000/svg" id="Icons" viewBox="0 0 64 64" width="512" height="512"><path d="M59.783,24.428l-4.242-4.242a3.073,3.073,0,0,0-4.243,0l-6.365,6.363a3.006,3.006,0,0,0,0,4.243l2.828,2.828a1,1,0,0,1,0,1.414L35.034,47.762a1,1,0,0,1-1.414,0l-2.828-2.83a3.007,3.007,0,0,0-4.243,0L20.186,51.3a3,3,0,0,0,0,4.242l4.242,4.243a11.012,11.012,0,0,0,15.556,0l19.8-19.8A11.012,11.012,0,0,0,59.783,24.428ZM46.348,27.963,52.712,21.6a1.024,1.024,0,0,1,1.414,0l1.415,1.414-7.778,7.778-1.414-1.414A1,1,0,0,1,46.348,27.963ZM21.6,52.712l6.363-6.363a1,1,0,0,1,1.415,0l1.414,1.415L23.014,55.54,21.6,54.125A1,1,0,0,1,21.6,52.712Z" style="fill:#c4a2fc"/><path d="M38.932,42.733A5.425,5.425,0,0,0,35.411,40.3l-.142-.029-.3-14.5a3.082,3.082,0,0,0,2.07-2.9v-7.3a3.09,3.09,0,0,0-2.415-3.008,14.548,14.548,0,0,0-28.475,0,3.09,3.09,0,0,0-2.415,3.008v7.3A3.081,3.081,0,0,0,5.8,25.77l-.3,14.5-.142.029A5.4,5.4,0,0,0,6.413,51H34.35A5.4,5.4,0,0,0,38.932,42.733ZM25.579,39.27l-5.2,6.063-5.2-6.063.484-2.905a14.8,14.8,0,0,0,3.65,1.813,3.379,3.379,0,0,0,2.127,0,14.867,14.867,0,0,0,3.65-1.814Zm5.874-13.314h1.054a6.289,6.289,0,0,1-1.986,3.66A14.826,14.826,0,0,0,31.453,25.956Zm-1.637-9.3h-.642a3.953,3.953,0,0,1-3.69-2.5,1,1,0,0,0-1.761-.184,6.018,6.018,0,0,1-5.016,2.685h-7.76V15.565a9.435,9.435,0,0,1,18.869,0Zm-11.109,2a8.008,8.008,0,0,0,5.7-2.372,5.936,5.936,0,0,0,4.769,2.372h.642c-.008,2.17-.1,4.366-.282,6.531a12.819,12.819,0,0,1-2.056,5.962,6.3,6.3,0,0,1-1.188.116H21.425a1,1,0,0,0,0,2h4.316a12.811,12.811,0,0,1-4.931,3.02h0a1.366,1.366,0,0,1-.855,0,12.81,12.81,0,0,1-8.724-11.1c-.18-2.165-.274-4.361-.282-6.531ZM27.515,38.72l-.631-3.783a14.783,14.783,0,0,0,1.8-2.032,8.323,8.323,0,0,0,4.363-3.14l.212,10.1Zm7.519-15.851a1.088,1.088,0,0,1-1.087,1.087H31.816V14.479h2.131a1.088,1.088,0,0,1,1.087,1.086ZM20.381,3a12.665,12.665,0,0,1,12.18,9.479h-1.18a11.421,11.421,0,0,0-22,0H8.2A12.664,12.664,0,0,1,20.381,3ZM5.729,15.565a1.087,1.087,0,0,1,1.087-1.086H8.947v9.477H6.816a1.087,1.087,0,0,1-1.087-1.087ZM7.8,25.956H9.31a14.8,14.8,0,0,0,4.568,8.982l-.63,3.782L7.5,39.869ZM34.35,49H6.413a3.4,3.4,0,0,1-.667-6.74l8-1.6,5.88,6.859a1,1,0,0,0,1.517,0l5.88-6.859,8,1.6A3.4,3.4,0,0,1,34.35,49Z" style="fill:#151a6a"/></svg>
