<svg id="Icons" height="512" viewBox="0 0 64 64" width="512" xmlns="http://www.w3.org/2000/svg"><path d="m60 13h-25a3 3 0 0 0 -3 3v44a3 3 0 0 0 3 3h25a3 3 0 0 0 3-3v-44a3 3 0 0 0 -3-3zm-25 2h25a1 1 0 0 1 1 1v3h-27v-3a1 1 0 0 1 1-1zm25 46h-25a1 1 0 0 1 -1-1v-3h27v3a1 1 0 0 1 -1 1z" fill="#c4a2fc"/><circle cx="54" cy="17" fill="#c4a2fc" r="1"/><circle cx="51" cy="17" fill="#c4a2fc" r="1"/><g fill="#151a6a"><path d="m48 21h-5v-17a3 3 0 0 0 -3-3h-36a3 3 0 0 0 -3 3v44a3 3 0 0 0 3 3h44a3 3 0 0 0 3-3v-24a3 3 0 0 0 -3-3zm1 3v3h-34v-3a1 1 0 0 1 1-1h32a1 1 0 0 1 1 1zm-45-21h36a1 1 0 0 1 1 1v3h-38v-3a1 1 0 0 1 1-1zm-1 45v-39h38v12h-25a3 3 0 0 0 -3 3v24a2.966 2.966 0 0 0 .184 1h-9.184a1 1 0 0 1 -1-1zm45 1h-32a1 1 0 0 1 -1-1v-19h34v19a1 1 0 0 1 -1 1z"/><circle cx="6" cy="5" r="1"/><circle cx="9" cy="5" r="1"/><circle cx="12" cy="5" r="1"/><circle cx="18" cy="25" r="1"/><circle cx="21" cy="25" r="1"/><circle cx="24" cy="25" r="1"/></g></svg>