<svg id="Icons" viewBox="0 0 64 64" xmlns="http://www.w3.org/2000/svg"><path d="m62 40h-8a1 1 0 0 0 -1 1v3.454l-6.527-5.712a3 3 0 0 0 -1.973-.742h-7a2.5 2.5 0 0 0 0 5h3.5a1 1 0 0 1 0 2h-9a1 1 0 0 1 -.707-.293l-14.75-14.749a2.183 2.183 0 0 0 -3.086 0 1.991 1.991 0 0 0 -.239 2.525l13.228 19.453a7 7 0 0 0 5.788 3.064h13.766a1 1 0 0 1 .447.1l6.553 3.282v3.618a1 1 0 0 0 1 1h8a1 1 0 0 0 1-1v-21a1 1 0 0 0 -1-1zm-1 21h-6v-19h6z" fill="#c4a2fc"/><g fill="#151a6a"><path d="m48 1h-44a3 3 0 0 0 -3 3v27a3 3 0 0 0 3 3h44a3 3 0 0 0 3-3v-27a3 3 0 0 0 -3-3zm1 30a1 1 0 0 1 -1 1h-44a1 1 0 0 1 -1-1v-27a1 1 0 0 1 1-1h44a1 1 0 0 1 1 1z"/><path d="m46 10a4 4 0 0 1 -4-4 1 1 0 0 0 -1-1h-30a1 1 0 0 0 -1 1 4 4 0 0 1 -4 4 1 1 0 0 0 -1 1v13a1 1 0 0 0 1 1 4 4 0 0 1 4 4 1 1 0 0 0 1 1h30a1 1 0 0 0 1-1 4 4 0 0 1 4-4 1 1 0 0 0 1-1v-13a1 1 0 0 0 -1-1zm-1 13.083a6.017 6.017 0 0 0 -4.917 4.917h-28.166a6.017 6.017 0 0 0 -4.917-4.917v-11.166a6.017 6.017 0 0 0 4.917-4.917h28.166a6.017 6.017 0 0 0 4.917 4.917z"/><path d="m26 9a8.271 8.271 0 0 0 -8 8.5 8.271 8.271 0 0 0 8 8.5 8.271 8.271 0 0 0 8-8.5 8.271 8.271 0 0 0 -8-8.5zm0 15a6.272 6.272 0 0 1 -6-6.5 6.272 6.272 0 0 1 6-6.5 6.272 6.272 0 0 1 6 6.5 6.272 6.272 0 0 1 -6 6.5z"/></g></svg>