<svg id="Icons" height="512" viewBox="0 0 64 64" width="512" xmlns="http://www.w3.org/2000/svg"><path d="m59 63h-22a1 1 0 0 1 -.992-1.124l.858-6.863a.959.959 0 0 0 -.319-.864 17.64 17.64 0 0 1 -6.547-13.749v-.132a5.024 5.024 0 0 1 2.427-4.287l2.573-1.547v-17.434a4 4 0 0 1 4.213-3.995 4.089 4.089 0 0 1 3.787 4.165v8.153l14.343 5.737a8.958 8.958 0 0 1 5.657 8.356v3.184a19.13 19.13 0 0 1 -3.7 11.347 1.035 1.035 0 0 0 -.208.737l.9 7.2a1 1 0 0 1 -.992 1.116z" fill="#c4a2fc"/><g fill="#151a6a"><path d="m49 6h-10v-2a3 3 0 0 0 -3-3h-20a3 3 0 0 0 -3 3v2h-10a2 2 0 0 0 -2 2v28a2 2 0 0 0 2 2h10v2a3 3 0 0 0 3 3h20a3 3 0 0 0 3-3v-2h10a2 2 0 0 0 2-2v-28a2 2 0 0 0 -2-2zm-10 24h3.5a.5.5 0 0 1 0 1h-3.5zm-26 1h-3.5a.5.5 0 0 1 0-1h3.5zm-10 5v-28h10v3h-5a1 1 0 0 0 0 2h5v2h-3a1 1 0 0 0 0 2h3v11h-3.5a2.5 2.5 0 0 0 0 5h3.5v3zm34 4a1 1 0 0 1 -1 1h-20a1 1 0 0 1 -1-1v-36a1 1 0 0 1 1-1h20a1 1 0 0 1 1 1zm2-4v-3h3.5a2.5 2.5 0 0 0 0-5h-3.5v-11h3a1 1 0 0 0 0-2h-3v-2h5a1 1 0 0 0 0-2h-5v-3h10v28z"/><path d="m33 8h-14a1 1 0 0 0 0 2h14a1 1 0 0 0 0-2z"/><path d="m30 30h-8a3 3 0 0 0 0 6h8a3 3 0 0 0 0-6zm0 4h-8a1 1 0 0 1 0-2h8a1 1 0 0 1 0 2z"/><path d="m32 13a1 1 0 0 0 -1-1h-10a1 1 0 0 0 0 2h10a1 1 0 0 0 1-1z"/><path d="m29 20h-6a1 1 0 0 0 0 2h6a1 1 0 0 0 0-2z"/><path d="m29 24h-6a1 1 0 0 0 0 2h6a1 1 0 0 0 0-2z"/></g></svg>